<?xml version="1.0" encoding="UTF-8" standalone="no"?>
<!-- Created with Inkscape (http://www.inkscape.org/) -->

<svg
   width="512"
   height="512"
   viewBox="0 0 512 512"
   version="1.1"
   id="svg5"
   xml:space="preserve"
   inkscape:version="1.2 (dc2aedaf03, 2022-05-15)"
   sodipodi:docname="Direct-Donations-Card.svg"
   inkscape:export-filename="Direct-Donations-Card.png"
   inkscape:export-xdpi="96"
   inkscape:export-ydpi="96"
   xmlns:inkscape="http://www.inkscape.org/namespaces/inkscape"
   xmlns:sodipodi="http://sodipodi.sourceforge.net/DTD/sodipodi-0.dtd"
   xmlns="http://www.w3.org/2000/svg"
   xmlns:svg="http://www.w3.org/2000/svg"><sodipodi:namedview
     id="namedview7"
     pagecolor="#ffffff"
     bordercolor="#000000"
     borderopacity="0.25"
     inkscape:showpageshadow="2"
     inkscape:pageopacity="0.0"
     inkscape:pagecheckerboard="true"
     inkscape:deskcolor="#d1d1d1"
     inkscape:document-units="px"
     showgrid="false"
     showguides="true"
     inkscape:zoom="2.0058594"
     inkscape:cx="219.10808"
     inkscape:cy="212.12853"
     inkscape:window-width="2085"
     inkscape:window-height="1368"
     inkscape:window-x="384"
     inkscape:window-y="0"
     inkscape:window-maximized="0"
     inkscape:current-layer="g1541" /><defs
     id="defs2" /><g
     inkscape:label="Layer 1"
     inkscape:groupmode="layer"
     id="layer1" /><g
     id="g1541"
     transform="matrix(8.5091029,0,0,8.5091029,329.16071,260.66161)"
     inkscape:label="Card"><path
       d="M 389.29958,122.70042 H 122.70042 c -18.49531,0 -33.158266,14.82958 -33.158266,33.3249 L 89.37553,355.97468 c 0,18.49532 14.82958,33.3249 33.32489,33.3249 h 166.62447 v -33.3249 H 122.70042 V 256 h 299.92405 v -99.97468 c 0,-18.49532 -14.82958,-33.3249 -33.32489,-33.3249 z m 0,66.64979 H 122.70042 v -33.32489 h 266.59916 z"
       id="path1443"
       style="display:inline;fill:#ffffff;stroke-width:16.6624"
       inkscape:label="Credit Card"
       sodipodi:nodetypes="ssccscccccssccccc"
       transform="matrix(0.16537456,0,0,0.16537456,-50.976307,-43.387204)" /><circle
       cx="14.884617"
       cy="4.54"
       r="2"
       id="circle1528"
       style="fill:#ffffff" /><path
       d="M 11.884622,17 H 9.8846216 c 0,1.65 -1.3500024,3 -3.0000032,3 -1.65,0 -3,-1.35 -3,-3 0,-1.65 1.35,-3 3,-3 v -2 c -2.76,0 -5,2.24 -5,5 0,2.76 2.24,5 5,5 2.7600028,0 5.0000036,-2.24 5.0000036,-5 z m 3,-3.5 h -1.86 l 1.67,-3.67 c 0.61,-1.33 -0.37,-2.83 -1.85,-2.83 H 7.6446184 c -0.81,0 -1.54,0.47 -1.87,1.2 l -0.67,1.8 1.92,0.53 0.65,-1.53 h 2.2100032 l -1.8300032,4.1 c -0.6,1.33 0.3900008,2.9 1.8500032,2.9 h 4.9800004 v 5 h 2 v -5.5 c 0,-1.1 -0.9,-2 -2,-2 z"
       id="path1530"
       style="fill:#ffffff" /></g></svg>
