<?xml version="1.0" encoding="UTF-8" standalone="no"?>
<!-- Created with Inkscape (http://www.inkscape.org/) -->

<svg
   width="512"
   height="512"
   viewBox="0 0 512 512"
   version="1.1"
   id="svg5"
   xml:space="preserve"
   sodipodi:docname="Direct-Donations-Wallet.svg"
   inkscape:version="1.2 (dc2aedaf03, 2022-05-15)"
   xmlns:inkscape="http://www.inkscape.org/namespaces/inkscape"
   xmlns:sodipodi="http://sodipodi.sourceforge.net/DTD/sodipodi-0.dtd"
   xmlns="http://www.w3.org/2000/svg"
   xmlns:svg="http://www.w3.org/2000/svg"
   xmlns:rdf="http://www.w3.org/1999/02/22-rdf-syntax-ns#"
   xmlns:cc="http://creativecommons.org/ns#"
   xmlns:dc="http://purl.org/dc/elements/1.1/"><title
     id="title1828">Direct Donations</title><sodipodi:namedview
     id="namedview7"
     pagecolor="#ffffff"
     bordercolor="#000000"
     borderopacity="0.25"
     inkscape:showpageshadow="2"
     inkscape:pageopacity="0.0"
     inkscape:pagecheckerboard="true"
     inkscape:deskcolor="#d1d1d1"
     inkscape:document-units="px"
     showgrid="false"
     showguides="true"
     inkscape:zoom="2.0058594"
     inkscape:cx="219.60662"
     inkscape:cy="236.05842"
     inkscape:window-width="1718"
     inkscape:window-height="1368"
     inkscape:window-x="-7"
     inkscape:window-y="0"
     inkscape:window-maximized="0"
     inkscape:current-layer="g1541" /><defs
     id="defs2" /><g
     id="g1541"
     transform="matrix(12.270618,0,0,12.270618,212.70787,105.43951)"
     inkscape:label="Accessability"><path
       d="m 482.79942,402.46348 v 26.77865 c 0,29.45651 -24.10078,53.55729 -53.55729,53.55729 H 54.341122 c -29.724293,0 -53.55728618,-24.10078 -53.55728618,-53.55729 V 54.341122 C 0.78383582,24.884615 24.616829,0.78383582 54.341122,0.78383582 H 429.24213 c 29.45651,0 53.55729,24.10077918 53.55729,53.55728618 V 81.119766 H 241.79163 c -29.7243,0 -53.55729,24.100774 -53.55729,53.557284 V 348.9062 c 0,29.45651 23.83299,53.55728 53.55729,53.55728 z"
       id="path1694"
       style="fill:#ffffff;stroke-width:26.7786"
       inkscape:label="Wallet"
       sodipodi:nodetypes="csssssssscssssc"
       transform="matrix(0.08149549,0,0,0.08149549,-16.176814,-7.4349265)" /><circle
       cx="17"
       cy="4.54"
       r="2"
       id="circle1528"
       style="fill:#ffffff"
       inkscape:label="Head" /><path
       d="m 14,17 h -2 c 0,1.65 -1.35,3 -3,3 -1.65,0 -3,-1.35 -3,-3 0,-1.65 1.35,-3 3,-3 v -2 c -2.76,0 -5,2.24 -5,5 0,2.76 2.24,5 5,5 2.76,0 5,-2.24 5,-5 z m 3,-3.5 H 15.14 L 16.81,9.83 C 17.42,8.5 16.44,7 14.96,7 H 9.76 C 8.95,7 8.22,7.47 7.89,8.2 L 7.22,10 9.14,10.53 9.79,9 H 12 l -1.83,4.1 c -0.6,1.33 0.39,2.9 1.85,2.9 H 17 v 5 h 2 v -5.5 c 0,-1.1 -0.9,-2 -2,-2 z"
       id="path1530"
       style="fill:#ffffff"
       inkscape:label="Body" /></g><metadata
     id="metadata1826"><rdf:RDF><cc:Work
         rdf:about=""><dc:title>Direct Donations</dc:title></cc:Work></rdf:RDF></metadata></svg>
